<?xml version="1.0" standalone="no"?>
<!DOCTYPE svg PUBLIC "-//W3C//DTD SVG 20010904//EN"
  "http://www.w3.org/TR/2001/REC-SVG-20010904/DTD/svg10.dtd">
<svg
  height="648.951267pt" preserveAspectRatio="xMidYMid meet"
  version="1.0" viewBox="0 0 640.921481 648.951267" width="640.921481pt"
  xmlns="http://www.w3.org/2000/svg"
>
  <metadata>
    Created by Potrace Professional 1.1m
  </metadata>
  <g
    fill="#fff"
    stroke="none" transform="translate(-187.078519,838.990352) rotate(-360.00) scale(0.095238,-0.095238)"
  >
    <path
      d="M5176 8670 c-79 -76 -222 -214 -319 -307 l-176 -168 123 -110 c68
-61 209 -201 313 -312 104 -112 192 -202 196 -202 3 0 56 50 116 112 184 189
262 266 399 392 l132 122 -137 127 c-76 71 -219 209 -320 307 -100 98 -183
178 -184 178 0 0 -65 -62 -143 -139z"
    />
    <path
      d="M7354 7718 c-220 -222 -424 -431 -453 -464 -65 -73 -398 -398 -727
-709 -136 -128 -269 -256 -295 -284 -27 -27 -139 -140 -250 -250 -111 -109
-225 -223 -252 -252 l-51 -53 -198 184 c-109 101 -288 271 -398 379 -109 107
-225 216 -257 243 -70 58 -433 418 -596 591 -84 89 -121 122 -125 111 -3 -9
-57 -66 -119 -126 -62 -61 -159 -159 -215 -218 l-103 -108 143 -139 c78 -77
252 -246 386 -375 364 -353 1329 -1318 1403 -1402 l64 -73 51 57 c160 181 379
406 838 862 283 281 531 527 552 548 20 20 352 354 739 742 l702 704 -41 30
c-22 16 -57 48 -76 71 -20 22 -100 107 -179 189 l-144 147 -399 -405z"
    />
    <path
      d="M4510 8009 c-11 -19 -150 -164 -308 -323 l-288 -289 158 -152 c157
-152 360 -369 394 -422 l19 -28 222 217 c122 120 270 265 328 323 l105 106
-235 225 c-129 123 -255 244 -279 267 -24 23 -55 57 -70 76 l-26 34 -20 -34z
m272 -391 l221 -226 -120 -104 c-118 -102 -248 -228 -318 -309 l-34 -40 -32
25 c-17 13 -119 113 -225 221 l-195 198 237 230 c129 126 238 230 241 230 2 0
104 -101 225 -225z"
    />
    <path
      d="M5936 7864 c-97 -95 -233 -226 -302 -290 l-126 -117 40 -45 c50 -57
320 -342 464 -489 l105 -109 110 108 c60 59 200 195 311 302 l201 194 -33 19
c-42 26 -573 552 -584 580 -7 18 -30 0 -186 -153z m175 -29 c0 -5 104 -112
231 -239 210 -209 251 -256 221 -256 -6 0 -108 -96 -226 -212 l-215 -211 -43
38 c-23 21 -66 66 -95 99 -30 33 -120 126 -201 208 l-147 148 78 64 c42 35
145 132 229 216 143 144 168 166 168 145z"
    />
    <path
      d="M2762 7552 l0 -258 102 7 c56 4 167 7 247 7 l144 0 0 249 0 250 -247
1 -246 2 0 -258z"
    />
    <path
      d="M4999 6987 c-180 -178 -326 -330 -326 -337 0 -7 56 -66 126 -131 69
-66 211 -204 316 -308 l190 -189 234 231 c128 127 281 273 339 325 89 80 103
96 88 105 -10 6 -89 81 -177 168 -87 87 -227 226 -311 309 l-153 152 -326
-325z m688 -199 c83 -81 151 -151 151 -155 0 -4 -35 -36 -78 -73 -237 -202
-351 -305 -383 -348 -20 -27 -40 -48 -45 -48 -11 0 -90 73 -342 316 l-171 164
66 67 c36 37 152 151 257 254 l191 186 102 -108 c56 -59 170 -174 252 -255z"
    />
    <path
      d="M8169 6915 c-15 -8 -37 -33 -49 -55 -71 -128 8 -251 149 -230 66 10
90 34 97 93 11 100 -58 207 -132 207 -21 -1 -51 -7 -65 -15z"
    />
    <path
      d="M3160 6577 c-9 -16 -47 -53 -85 -84 -97 -77 -203 -197 -312 -350 -22
-32 -71 -87 -107 -121 -37 -35 -138 -132 -225 -216 -87 -84 -202 -195 -257
-247 -54 -51 -124 -118 -154 -148 l-56 -53 39 -35 c121 -107 517 -493 599
-584 l69 -77 203 202 c112 111 209 211 215 222 8 15 5 22 -14 36 -14 9 -82 72
-152 141 l-128 126 104 94 c57 52 104 98 104 102 0 4 54 63 120 130 86 89 124
121 136 117 13 -5 45 22 114 95 54 56 101 108 105 115 8 14 -143 200 -252 309
-92 92 -100 106 -84 141 7 16 19 28 26 28 8 0 14 6 14 12 0 14 38 2 76 -24 46
-33 33 -5 -24 48 -28 27 -53 49 -56 49 -2 0 -10 -13 -18 -28z m-167 -701 c0
-2 -9 -10 -19 -18 -17 -13 -17 -13 -4 4 14 17 23 23 23 14z"
    />
    <path
      d="M7465 6392 c-117 -113 -299 -334 -292 -354 6 -16 220 -231 230 -231
6 0 10 3 10 8 0 5 44 51 97 103 53 51 155 150 227 220 l130 127 -54 34 c-29
19 -91 74 -137 123 -46 48 -85 88 -86 88 -2 0 -59 -53 -125 -118z"
    />
    <path
      d="M7761 5869 l-211 -201 44 -37 c65 -54 261 -247 258 -254 -5 -11 -233
-226 -274 -259 l-39 -32 221 -215 c122 -118 223 -215 224 -217 2 -1 57 53 122
121 199 206 534 537 562 555 14 9 26 21 26 26 0 9 -452 457 -647 643 l-75 71
-211 -201z"
    />
    <path
      d="M3453 5711 l-316 -316 125 -122 c68 -68 182 -176 253 -241 70 -66
148 -147 172 -182 l44 -63 185 182 c101 100 217 212 258 250 40 38 98 101 129
139 58 74 58 71 5 87 -15 4 -50 -24 -167 -132 -41 -37 -113 -103 -161 -146
-47 -43 -112 -110 -143 -149 -32 -40 -63 -72 -69 -72 -7 0 -62 50 -123 112
-62 62 -163 162 -226 222 l-114 109 156 157 c86 87 187 186 224 222 37 36 81
78 96 95 26 27 32 29 59 20 66 -25 67 -25 55 -2 -7 12 -38 50 -69 84 l-57 62
-316 -316z"
    />
    <path
      d="M6848 5975 c-41 -50 -41 -56 -6 -75 15 -8 71 -64 124 -125 98 -111
277 -285 361 -348 42 -33 44 -36 25 -51 -11 -9 -58 -45 -104 -81 -85 -65 -283
-268 -321 -328 -11 -18 -26 -32 -34 -32 -8 0 -56 45 -107 101 -89 98 -295 292
-365 346 -31 23 -100 43 -100 29 0 -22 103 -134 296 -324 123 -121 240 -239
259 -261 33 -38 36 -40 46 -21 5 11 140 148 300 305 l290 284 -84 92 c-46 51
-135 138 -199 194 -137 122 -330 313 -330 327 0 20 -19 8 -51 -32z"
    />
    <path
      d="M6095 5237 c-15 -19 -118 -126 -229 -239 -111 -113 -239 -244 -284
-291 l-83 -85 20 -25 c11 -14 110 -110 219 -213 199 -188 262 -251 336 -341
22 -26 42 -48 46 -49 4 -1 61 58 128 131 66 73 209 220 318 326 l197 194 -317
313 c-174 172 -318 313 -320 313 -1 0 -15 -15 -31 -34z"
    />
    <path
      d="M4196 4960 c-272 -274 -298 -303 -286 -321 8 -11 130 -139 272 -284
242 -249 323 -337 323 -354 0 -11 584 564 604 595 17 26 17 28 -1 42 -11 7
-23 14 -27 14 -3 0 -44 -34 -89 -75 -46 -41 -107 -93 -137 -116 -29 -22 -112
-105 -183 -183 l-129 -143 -42 51 c-24 28 -134 141 -246 250 -111 110 -202
202 -202 206 0 3 111 113 247 245 214 207 249 237 263 225 10 -7 32 -14 51
-15 19 -1 41 -5 49 -10 8 -4 0 8 -18 28 -18 19 -46 51 -63 70 -17 20 -43 45
-58 56 l-28 20 -300 -301z"
    />
    <path
      d="M2981 4674 l-167 -166 328 -327 c181 -180 337 -341 348 -358 l21 -30
160 164 160 164 -107 110 c-59 61 -141 151 -182 200 -41 49 -142 155 -223 236
-81 81 -148 153 -148 160 0 31 -32 5 -190 -153z"
    />
    <path
      d="M7452 4826 c-8 -20 -217 -257 -344 -390 -93 -97 -237 -258 -272 -302
-13 -17 0 -34 150 -184 l164 -166 33 46 c18 26 172 185 341 354 l309 309 -124
119 c-157 152 -239 229 -246 229 -3 0 -8 -7 -11 -15z"
    />
    <path
      d="M4990 4183 c-175 -175 -317 -324 -317 -332 0 -7 62 -74 139 -150 168
-165 431 -436 476 -490 l33 -40 288 297 c159 163 307 317 330 342 l41 47 -158
148 c-86 81 -185 178 -220 216 -108 118 -276 284 -285 282 -5 0 -152 -144
-327 -320z m460 13 c95 -103 201 -209 296 -297 77 -72 96 -98 70 -98 -15 0
-349 -319 -424 -405 l-62 -73 -200 200 c-110 110 -228 226 -262 257 l-62 56
88 82 c49 45 91 82 95 82 3 0 78 79 167 175 l161 175 32 -41 c18 -22 63 -73
101 -113z"
    />
    <path d="M6710 4269 c-7 -9 -11 -21 -9 -26 2 -6 9 1 15 15 14 30 12 33 -6 11z" />
    <path
      d="M3840 3816 c-85 -83 -154 -156 -154 -163 0 -6 59 -69 131 -139 73
-70 224 -223 335 -339 l203 -210 114 125 c63 69 127 135 143 146 16 11 29 25
29 31 0 20 -211 252 -394 434 -98 98 -196 198 -216 223 l-36 43 -155 -151z"
    />
    <path
      d="M6645 3938 c-377 -355 -471 -452 -578 -592 l-54 -71 149 -149 150
-149 122 129 c68 72 218 224 333 338 l210 208 -141 144 c-78 78 -149 147 -158
151 -10 5 -23 2 -33 -9z"
    />
    <path
      d="M5902 3447 c-34 -41 -40 -55 -22 -55 6 0 11 5 11 11 0 6 12 27 27 47
37 48 24 46 -16 -3z"
    />
    <path
      d="M2759 3170 l3 -254 55 7 c30 3 142 6 249 6 l194 1 2 246 2 247 -254
0 -254 0 3 -253z"
    />
    <path
      d="M7421 3179 l3 -244 253 -3 253 -3 -6 40 c-4 21 -7 133 -7 247 l0 207
-249 0 -250 0 3 -244z"
    />
    <path
      d="M5817 3131 c0 -13 -32 -48 -87 -94 -47 -40 -159 -149 -248 -243
l-162 -170 -117 119 c-64 65 -166 166 -228 223 -61 58 -120 120 -131 138 l-20
34 -157 -157 -157 -156 189 -192 c104 -105 287 -292 407 -415 l219 -223 33 39
c74 87 281 306 339 359 34 32 151 145 260 252 l199 195 -141 135 c-77 74 -153
144 -169 156 -29 20 -29 20 -29 0z"
    />
    <path
      d="M6678 2754 c-49 -25 -76 -78 -70 -139 4 -40 13 -55 58 -97 44 -42 59
-50 93 -50 52 0 123 33 145 67 14 21 17 43 13 92 -4 56 -9 68 -37 93 -57 51
-140 65 -202 34z"
    />
    <path
      d="M3798 2745 c-36 -20 -81 -89 -81 -126 0 -34 22 -76 57 -109 41 -38
132 -42 195 -8 41 21 48 31 56 70 13 66 0 130 -32 162 -24 24 -35 27 -96 27
-41 0 -82 -7 -99 -16z"
    />
  </g>
</svg>
